<?xml version="1.0" encoding="utf-8"?>
<!-- Generator: Adobe Illustrator 16.0.0, SVG Export Plug-In . SVG Version: 6.00 Build 0)  -->
<!DOCTYPE svg PUBLIC "-//W3C//DTD SVG 1.1//EN" "http://www.w3.org/Graphics/SVG/1.1/DTD/svg11.dtd">
<svg version="1.1" xmlns="http://www.w3.org/2000/svg" xmlns:xlink="http://www.w3.org/1999/xlink" x="0px" y="0px" width="1000px"
	 height="1000px" viewBox="0 0 1000 1000" enable-background="new 0 0 1000 1000" xml:space="preserve">
<g id="Layer_1">
	<rect x="83.223" y="387.11" fill="#FFFFFF" stroke="#000000" stroke-miterlimit="10" width="146.667" height="135.557"/>
	<text transform="matrix(1 0 0 1 134.6602 454.8887)" font-family="'MyriadPro-Regular'" font-size="18">Client</text>
</g>
<g id="Layer_4">
	<path fill="#FFFFFF" stroke="#000000" stroke-miterlimit="10" d="M173.549,954.778c0,6.627-5.372,12-12,12h-53.777
		c-6.627,0-12-5.373-12-12V843.223c0-6.628,5.373-12,12-12h53.777c6.628,0,12,5.372,12,12V954.778z"/>
	<text transform="matrix(1 0 0 1 102.3237 888.5557)"><tspan x="0" y="0" font-family="'MyriadPro-Regular'" font-size="18">Youtube</tspan><tspan x="8.307" y="21.6" font-family="'MyriadPro-Regular'" font-size="18">iframe</tspan><tspan x="19.89" y="43.2" font-family="'MyriadPro-Regular'" font-size="18">API</tspan></text>
</g>
<g id="Layer_5">
	<path fill="#FFFFFF" stroke="#000000" stroke-miterlimit="10" d="M693.112,954.778c0,6.627-5.373,12-12,12h-53.777
		c-6.628,0-12-5.373-12-12V843.223c0-6.628,5.372-12,12-12h53.777c6.627,0,12,5.372,12,12V954.778z"/>
	<text transform="matrix(1 0 0 1 632.1914 888.5557)"><tspan x="0" y="0" font-family="'MyriadPro-Regular'" font-size="18">Musix</tspan><tspan x="-1.548" y="21.6" font-family="'MyriadPro-Regular'" font-size="18">Match</tspan><tspan x="9.585" y="43.2" font-family="'MyriadPro-Regular'" font-size="18">API</tspan></text>
</g>
<g id="Layer_2">
	<rect x="580.89" y="392.395" fill="#FFFFFF" stroke="#000000" stroke-miterlimit="10" width="146.667" height="135.556"/>
	<text transform="matrix(1 0 0 1 632.3262 465.4556)" font-family="'MyriadPro-Regular'" font-size="18">Server</text>
</g>
<g id="Layer_3">
	<path fill="#FFFFFF" stroke="#000000" stroke-miterlimit="10" d="M187.667,171c0,6.627-5.372,12-12,12h-38.222
		c-6.628,0-12-5.373-12-12v-28.223c0-6.627,5.372-12,12-12h38.222c6.628,0,12,5.373,12,12V171z"/>
	<ellipse fill="#FFFFFF" stroke="#000000" stroke-miterlimit="10" cx="156.556" cy="101.333" rx="28.333" ry="29.444"/>
	<text transform="matrix(1 0 0 1 239.7192 335.2217)"><tspan x="0" y="0" fill="#349946" font-family="'MyriadPro-Regular'" font-size="18">Message,</tspan><tspan x="-23.04" y="21.6" fill="#349946" font-family="'MyriadPro-Regular'" font-size="18">Play command,</tspan><tspan x="-31.644" y="43.2" fill="#349946" font-family="'MyriadPro-Regular'" font-size="18">YouTube controls</tspan></text>
	<line fill="none" stroke="#39B54A" stroke-miterlimit="10" x1="173.549" y1="195.222" x2="173.549" y2="376.333"/>
	<line fill="none" stroke="#39B54A" stroke-miterlimit="10" x1="173.549" y1="376.333" x2="185.33" y2="364.552"/>
	<line fill="none" stroke="#39B54A" stroke-miterlimit="10" x1="173.549" y1="376.333" x2="161.939" y2="364.724"/>
	<line fill="none" stroke="#39B54A" stroke-miterlimit="10" x1="247.667" y1="387" x2="559.889" y2="389.222"/>
	<line fill="none" stroke="#39B54A" stroke-miterlimit="10" x1="559.889" y1="389.222" x2="544.333" y2="376.395"/>
	<line fill="none" stroke="#39B54A" stroke-miterlimit="10" x1="559.889" y1="389.222" x2="546.555" y2="402.556"/>
	<line fill="none" stroke="#BE1E2D" stroke-miterlimit="10" x1="559.889" y1="420.444" x2="247.667" y2="420.444"/>
	<line fill="none" stroke="#BE1E2D" stroke-miterlimit="10" x1="247.667" y1="420.444" x2="255.444" y2="410.444"/>
	<line fill="none" stroke="#BE1E2D" stroke-miterlimit="10" x1="247.667" y1="420.444" x2="255.444" y2="433.172"/>
	<text transform="matrix(1 0 0 1 293.4395 438.8887)" fill="#993333" font-family="'MyriadPro-Regular'" font-size="18">Messages &amp; Youtube controls</text>
	<text transform="matrix(1 0 0 1 359.6724 478.1108)" fill="#2E3192" font-family="'MyriadPro-Regular'" font-size="18">videoID</text>
	<line fill="none" stroke="#2E3192" stroke-miterlimit="10" x1="553.222" y1="459.456" x2="241" y2="459.456"/>
	<line fill="none" stroke="#2E3192" stroke-miterlimit="10" x1="241" y1="459.456" x2="248.777" y2="449.456"/>
	<line fill="none" stroke="#2E3192" stroke-miterlimit="10" x1="241" y1="459.456" x2="248.777" y2="472.183"/>
	<line fill="none" stroke="#2E3192" stroke-miterlimit="10" x1="128.574" y1="538.327" x2="128.574" y2="822.772"/>
	<line fill="none" stroke="#2E3192" stroke-miterlimit="10" x1="128.574" y1="822.772" x2="140.355" y2="804.269"/>
	<line fill="none" stroke="#2E3192" stroke-miterlimit="10" x1="128.574" y1="822.772" x2="116.965" y2="804.538"/>
	<line fill="#2E3192" stroke="#2E3192" stroke-miterlimit="10" x1="105.616" y1="822.772" x2="105.616" y2="538.327"/>
	<line fill="#2E3192" stroke="#2E3192" stroke-miterlimit="10" x1="105.616" y1="538.327" x2="93.835" y2="556.831"/>
	<line fill="#2E3192" stroke="#2E3192" stroke-miterlimit="10" x1="105.616" y1="538.327" x2="117.226" y2="556.562"/>
	<text transform="matrix(1 0 0 1 27.8452 696.332)"><tspan x="0" y="0" fill="#2E3192" font-family="'MyriadPro-Regular'" font-size="18">initialise</tspan><tspan x="9.972" y="21.6" fill="#2E3192" font-family="'MyriadPro-Regular'" font-size="18">video</tspan><tspan x="12.915" y="43.2" fill="#2E3192" font-family="'MyriadPro-Regular'" font-size="18">from</tspan><tspan x="22.788" y="64.8" fill="#2E3192" font-family="'MyriadPro-Regular'" font-size="18">ID</tspan></text>
	<linearGradient id="SVGID_1_" gradientUnits="userSpaceOnUse" x1="140.4414" y1="285.7773" x2="140.4414" y2="285.7773">
		<stop  offset="0" style="stop-color:#00A8DE"/>
		<stop  offset="0.2" style="stop-color:#333391"/>
		<stop  offset="0.4" style="stop-color:#E91388"/>
		<stop  offset="0.6" style="stop-color:#EB2D2E"/>
		<stop  offset="0.8" style="stop-color:#FDE92B"/>
		<stop  offset="1" style="stop-color:#009E54"/>
	</linearGradient>
	<linearGradient id="SVGID_2_" gradientUnits="userSpaceOnUse" x1="137.9414" y1="285.7773" x2="142.9414" y2="285.7773">
		<stop  offset="0" style="stop-color:#00A8DE"/>
		<stop  offset="0.2" style="stop-color:#333391"/>
		<stop  offset="0.4" style="stop-color:#E91388"/>
		<stop  offset="0.6" style="stop-color:#EB2D2E"/>
		<stop  offset="0.8" style="stop-color:#FDE92B"/>
		<stop  offset="1" style="stop-color:#009E54"/>
	</linearGradient>
	
		<line fill="url(#SVGID_1_)" stroke="url(#SVGID_2_)" stroke-width="5" stroke-miterlimit="10" x1="140.441" y1="376.333" x2="140.441" y2="195.222"/>
	<linearGradient id="SVGID_3_" gradientUnits="userSpaceOnUse" x1="128.6602" y1="201.1128" x2="140.4414" y2="201.1128">
		<stop  offset="0" style="stop-color:#00A8DE"/>
		<stop  offset="0.2" style="stop-color:#333391"/>
		<stop  offset="0.4" style="stop-color:#E91388"/>
		<stop  offset="0.6" style="stop-color:#EB2D2E"/>
		<stop  offset="0.8" style="stop-color:#FDE92B"/>
		<stop  offset="1" style="stop-color:#009E54"/>
	</linearGradient>
	<linearGradient id="SVGID_4_" gradientUnits="userSpaceOnUse" x1="126.8921" y1="201.1128" x2="142.2095" y2="201.1128">
		<stop  offset="0" style="stop-color:#00A8DE"/>
		<stop  offset="0.2" style="stop-color:#333391"/>
		<stop  offset="0.4" style="stop-color:#E91388"/>
		<stop  offset="0.6" style="stop-color:#EB2D2E"/>
		<stop  offset="0.8" style="stop-color:#FDE92B"/>
		<stop  offset="1" style="stop-color:#009E54"/>
	</linearGradient>
	
		<line fill="url(#SVGID_3_)" stroke="url(#SVGID_4_)" stroke-width="5" stroke-miterlimit="10" x1="140.441" y1="195.222" x2="128.66" y2="207.004"/>
	<linearGradient id="SVGID_5_" gradientUnits="userSpaceOnUse" x1="140.4414" y1="201.0269" x2="152.0508" y2="201.0269">
		<stop  offset="0" style="stop-color:#00A8DE"/>
		<stop  offset="0.2" style="stop-color:#333391"/>
		<stop  offset="0.4" style="stop-color:#E91388"/>
		<stop  offset="0.6" style="stop-color:#EB2D2E"/>
		<stop  offset="0.8" style="stop-color:#FDE92B"/>
		<stop  offset="1" style="stop-color:#009E54"/>
	</linearGradient>
	<linearGradient id="SVGID_6_" gradientUnits="userSpaceOnUse" x1="138.6733" y1="201.0269" x2="153.8188" y2="201.0269">
		<stop  offset="0" style="stop-color:#00A8DE"/>
		<stop  offset="0.2" style="stop-color:#333391"/>
		<stop  offset="0.4" style="stop-color:#E91388"/>
		<stop  offset="0.6" style="stop-color:#EB2D2E"/>
		<stop  offset="0.8" style="stop-color:#FDE92B"/>
		<stop  offset="1" style="stop-color:#009E54"/>
	</linearGradient>
	
		<line fill="url(#SVGID_5_)" stroke="url(#SVGID_6_)" stroke-width="5" stroke-miterlimit="10" x1="140.441" y1="195.222" x2="152.051" y2="206.832"/>
	<line fill="none" stroke="#FBB040" stroke-miterlimit="10" x1="245.667" y1="492.08" x2="557.889" y2="494.303"/>
	<line fill="none" stroke="#FBB040" stroke-miterlimit="10" x1="557.889" y1="494.303" x2="542.333" y2="481.475"/>
	<line fill="none" stroke="#FBB040" stroke-miterlimit="10" x1="557.889" y1="494.303" x2="544.555" y2="507.637"/>
	<text transform="matrix(1 0 0 1 307.3667 514.875)" fill="#F7941E" font-family="'MyriadPro-Regular'" font-size="18">Video title</text>
	<line fill="none" stroke="#F7941E" stroke-miterlimit="10" x1="665.702" y1="538.327" x2="665.702" y2="822.772"/>
	<line fill="none" stroke="#F7941E" stroke-miterlimit="10" x1="665.702" y1="822.772" x2="677.483" y2="804.269"/>
	<line fill="none" stroke="#F7941E" stroke-miterlimit="10" x1="665.702" y1="822.772" x2="654.093" y2="804.538"/>
	<line fill="#2E3192" stroke="#F7941E" stroke-miterlimit="10" x1="642.744" y1="822.772" x2="642.744" y2="538.327"/>
	<line fill="#2E3192" stroke="#F7941E" stroke-miterlimit="10" x1="642.744" y1="538.327" x2="630.963" y2="556.831"/>
	<line fill="#2E3192" stroke="#F7941E" stroke-miterlimit="10" x1="642.744" y1="538.327" x2="654.354" y2="556.562"/>
	<text transform="matrix(1 0 0 1 674.9814 660.791)"><tspan x="0" y="0" fill="#F7941E" font-family="'MyriadPro-Regular'" font-size="18">search</tspan><tspan x="3.42" y="21.6" fill="#F7941E" font-family="'MyriadPro-Regular'" font-size="18">video</tspan><tspan x="9.685" y="43.2" fill="#F7941E" font-family="'MyriadPro-Regular'" font-size="18">title</tspan></text>
	<text transform="matrix(1 0 0 1 457.8667 538.3271)" fill="#F7941E" font-family="'MyriadPro-Regular'" font-size="18">lyrics</text>
	<line fill="none" stroke="#F7941E" stroke-miterlimit="10" x1="559.889" y1="517.637" x2="247.667" y2="517.637"/>
	<line fill="none" stroke="#F7941E" stroke-miterlimit="10" x1="247.667" y1="517.637" x2="255.444" y2="507.637"/>
	<line fill="none" stroke="#F7941E" stroke-miterlimit="10" x1="247.667" y1="517.637" x2="255.444" y2="530.365"/>
	<text transform="matrix(1 0 0 1 142.665 164.1807)" font-family="'MyriadPro-Regular'" font-size="18">user</text>
</g>
</svg>
