<?xml version="1.0" encoding="utf-8"?>
<!-- Generator: Adobe Illustrator 16.0.0, SVG Export Plug-In . SVG Version: 6.00 Build 0)  -->
<!DOCTYPE svg PUBLIC "-//W3C//DTD SVG 1.1//EN" "http://www.w3.org/Graphics/SVG/1.1/DTD/svg11.dtd">
<svg version="1.1" xmlns="http://www.w3.org/2000/svg" xmlns:xlink="http://www.w3.org/1999/xlink" x="0px" y="0px"
	 width="762.292px" height="920.835px" viewBox="0 0 762.292 920.835" enable-background="new 0 0 762.292 920.835"
	 xml:space="preserve">
<g id="Layer_1">
	<rect x="83.223" y="323.194" fill="#FFFFFF" stroke="#000000" stroke-miterlimit="10" width="146.667" height="135.557"/>
	<text transform="matrix(1 0 0 1 134.6602 390.9727)" font-family="'MyriadPro-Regular'" font-size="18">Client</text>
</g>
<g id="Layer_4">
	<path fill="#FFFFFF" stroke="#000000" stroke-miterlimit="10" d="M173.549,890.862c0,6.627-5.372,12-12,12h-53.777
		c-6.627,0-12-5.373-12-12V779.307c0-6.628,5.373-12,12-12h53.777c6.628,0,12,5.372,12,12V890.862z"/>
	<text transform="matrix(1 0 0 1 102.3237 824.6396)"><tspan x="0" y="0" font-family="'MyriadPro-Regular'" font-size="18">Youtube</tspan><tspan x="8.307" y="21.6" font-family="'MyriadPro-Regular'" font-size="18">iframe</tspan><tspan x="19.89" y="43.2" font-family="'MyriadPro-Regular'" font-size="18">API</tspan></text>
	<text transform="matrix(1 0 0 1 21.2231 378.9727)"><tspan x="0" y="0" font-family="'MyriadPro-Regular'" font-size="12">YouTube -</tspan><tspan x="0" y="14.4" font-family="'MyriadPro-Regular'" font-size="12">player</tspan></text>
	<text transform="matrix(1 0 0 1 635.8535 268.042)"><tspan x="0" y="0" font-family="'MyriadPro-Regular'" font-size="12">currentVideo</tspan><tspan x="0" y="14.4" font-family="'MyriadPro-Regular'" font-size="12">currentTime</tspan><tspan x="0" y="28.8" font-family="'MyriadPro-Regular'" font-size="12">nicknames</tspan><tspan x="0" y="43.2" font-family="'MyriadPro-Regular'" font-size="12">playing</tspan></text>
	<text transform="matrix(1 0 0 1 185.3301 839.4307)"><tspan x="0" y="0" font-family="'MyriadPro-Regular'" font-size="12">YouTube -</tspan><tspan x="0" y="14.4" font-family="'MyriadPro-Regular'" font-size="12">player</tspan></text>
	
		<rect x="173.439" y="817.292" fill="none" stroke="#000000" stroke-miterlimit="10" stroke-dasharray="12" width="65.449" height="53.125"/>
	
		<rect x="542.333" y="817.292" fill="none" stroke="#000000" stroke-miterlimit="10" stroke-dasharray="12" width="73.002" height="60.417"/>
	
		<rect x="620.335" y="240.209" fill="none" stroke="#000000" stroke-miterlimit="10" stroke-dasharray="12" width="94.873" height="88.27"/>
	
		<rect x="11.25" y="346.528" fill="none" stroke="#000000" stroke-miterlimit="10" stroke-dasharray="12" width="71.973" height="71.031"/>
</g>
<g id="Layer_5">
	<path fill="#FFFFFF" stroke="#000000" stroke-miterlimit="10" d="M693.112,890.862c0,6.627-5.373,12-12,12h-53.777
		c-6.628,0-12-5.373-12-12V779.307c0-6.628,5.372-12,12-12h53.777c6.627,0,12,5.372,12,12V890.862z"/>
	<text transform="matrix(1 0 0 1 632.1914 824.6396)"><tspan x="0" y="0" font-family="'MyriadPro-Regular'" font-size="18">Musix</tspan><tspan x="-1.548" y="21.6" font-family="'MyriadPro-Regular'" font-size="18">Match</tspan><tspan x="9.585" y="43.2" font-family="'MyriadPro-Regular'" font-size="18">API</tspan></text>
</g>
<g id="Layer_2">
	<rect x="580.89" y="328.479" fill="#FFFFFF" stroke="#000000" stroke-miterlimit="10" width="146.667" height="135.556"/>
	<text transform="matrix(1 0 0 1 632.3262 401.5396)" font-family="'MyriadPro-Regular'" font-size="18">Server</text>
</g>
<g id="Layer_3">
	<path fill="#FFFFFF" stroke="#000000" stroke-miterlimit="10" d="M187.667,107.084c0,6.627-5.372,12-12,12h-38.222
		c-6.628,0-12-5.373-12-12V78.862c0-6.627,5.372-12,12-12h38.222c6.628,0,12,5.373,12,12V107.084z"/>
	<ellipse fill="#FFFFFF" stroke="#000000" stroke-miterlimit="10" cx="156.556" cy="37.417" rx="28.333" ry="29.444"/>
	<text transform="matrix(1 0 0 1 239.7192 271.3057)"><tspan x="0" y="0" fill="#349946" font-family="'MyriadPro-Regular'" font-size="18">Message,</tspan><tspan x="-23.04" y="21.6" fill="#349946" font-family="'MyriadPro-Regular'" font-size="18">Play command,</tspan><tspan x="-31.644" y="43.2" fill="#349946" font-family="'MyriadPro-Regular'" font-size="18">YouTube controls</tspan></text>
	<line fill="none" stroke="#39B54A" stroke-miterlimit="10" x1="173.549" y1="131.306" x2="173.549" y2="312.417"/>
	<line fill="none" stroke="#39B54A" stroke-miterlimit="10" x1="173.549" y1="312.417" x2="185.33" y2="300.636"/>
	<line fill="none" stroke="#39B54A" stroke-miterlimit="10" x1="173.549" y1="312.417" x2="161.939" y2="300.808"/>
	<line fill="none" stroke="#39B54A" stroke-miterlimit="10" x1="247.667" y1="323.084" x2="559.889" y2="325.306"/>
	<line fill="none" stroke="#39B54A" stroke-miterlimit="10" x1="559.889" y1="325.306" x2="544.333" y2="312.479"/>
	<line fill="none" stroke="#39B54A" stroke-miterlimit="10" x1="559.889" y1="325.306" x2="546.555" y2="338.64"/>
	<line fill="none" stroke="#BE1E2D" stroke-miterlimit="10" x1="559.889" y1="356.528" x2="247.667" y2="356.528"/>
	<line fill="none" stroke="#BE1E2D" stroke-miterlimit="10" x1="247.667" y1="356.528" x2="255.444" y2="346.528"/>
	<line fill="none" stroke="#BE1E2D" stroke-miterlimit="10" x1="247.667" y1="356.528" x2="255.444" y2="369.256"/>
	<text transform="matrix(1 0 0 1 293.4395 374.9727)" fill="#993333" font-family="'MyriadPro-Regular'" font-size="18">Messages &amp; Youtube controls</text>
	<text transform="matrix(1 0 0 1 359.6724 414.1948)" fill="#2E3192" font-family="'MyriadPro-Regular'" font-size="18">videoID</text>
	<line fill="none" stroke="#2E3192" stroke-miterlimit="10" x1="553.222" y1="395.54" x2="241" y2="395.54"/>
	<line fill="none" stroke="#2E3192" stroke-miterlimit="10" x1="241" y1="395.54" x2="248.777" y2="385.54"/>
	<line fill="none" stroke="#2E3192" stroke-miterlimit="10" x1="241" y1="395.54" x2="248.777" y2="408.267"/>
	<line fill="none" stroke="#2E3192" stroke-miterlimit="10" x1="128.574" y1="474.411" x2="128.574" y2="758.856"/>
	<line fill="none" stroke="#2E3192" stroke-miterlimit="10" x1="128.574" y1="758.856" x2="140.355" y2="740.353"/>
	<line fill="none" stroke="#2E3192" stroke-miterlimit="10" x1="128.574" y1="758.856" x2="116.965" y2="740.622"/>
	<line fill="#2E3192" stroke="#2E3192" stroke-miterlimit="10" x1="105.616" y1="758.856" x2="105.616" y2="474.411"/>
	<line fill="#2E3192" stroke="#2E3192" stroke-miterlimit="10" x1="105.616" y1="474.411" x2="93.835" y2="492.915"/>
	<line fill="#2E3192" stroke="#2E3192" stroke-miterlimit="10" x1="105.616" y1="474.411" x2="117.226" y2="492.646"/>
	<text transform="matrix(1 0 0 1 27.8452 632.416)"><tspan x="0" y="0" fill="#2E3192" font-family="'MyriadPro-Regular'" font-size="18">initialise</tspan><tspan x="9.972" y="21.6" fill="#2E3192" font-family="'MyriadPro-Regular'" font-size="18">video</tspan><tspan x="12.915" y="43.2" fill="#2E3192" font-family="'MyriadPro-Regular'" font-size="18">from</tspan><tspan x="22.788" y="64.8" fill="#2E3192" font-family="'MyriadPro-Regular'" font-size="18">ID</tspan></text>
	<linearGradient id="SVGID_1_" gradientUnits="userSpaceOnUse" x1="140.4414" y1="221.8613" x2="140.4414" y2="221.8613">
		<stop  offset="0" style="stop-color:#00A8DE"/>
		<stop  offset="0.2" style="stop-color:#333391"/>
		<stop  offset="0.4" style="stop-color:#E91388"/>
		<stop  offset="0.6" style="stop-color:#EB2D2E"/>
		<stop  offset="0.8" style="stop-color:#FDE92B"/>
		<stop  offset="1" style="stop-color:#009E54"/>
	</linearGradient>
	<linearGradient id="SVGID_2_" gradientUnits="userSpaceOnUse" x1="137.9414" y1="221.8613" x2="142.9414" y2="221.8613">
		<stop  offset="0" style="stop-color:#00A8DE"/>
		<stop  offset="0.2" style="stop-color:#333391"/>
		<stop  offset="0.4" style="stop-color:#E91388"/>
		<stop  offset="0.6" style="stop-color:#EB2D2E"/>
		<stop  offset="0.8" style="stop-color:#FDE92B"/>
		<stop  offset="1" style="stop-color:#009E54"/>
	</linearGradient>
	
		<line fill="url(#SVGID_1_)" stroke="url(#SVGID_2_)" stroke-width="5" stroke-miterlimit="10" x1="140.441" y1="312.417" x2="140.441" y2="131.306"/>
	<linearGradient id="SVGID_3_" gradientUnits="userSpaceOnUse" x1="128.6602" y1="137.1968" x2="140.4414" y2="137.1968">
		<stop  offset="0" style="stop-color:#00A8DE"/>
		<stop  offset="0.2" style="stop-color:#333391"/>
		<stop  offset="0.4" style="stop-color:#E91388"/>
		<stop  offset="0.6" style="stop-color:#EB2D2E"/>
		<stop  offset="0.8" style="stop-color:#FDE92B"/>
		<stop  offset="1" style="stop-color:#009E54"/>
	</linearGradient>
	<linearGradient id="SVGID_4_" gradientUnits="userSpaceOnUse" x1="126.8921" y1="137.1968" x2="142.2095" y2="137.1968">
		<stop  offset="0" style="stop-color:#00A8DE"/>
		<stop  offset="0.2" style="stop-color:#333391"/>
		<stop  offset="0.4" style="stop-color:#E91388"/>
		<stop  offset="0.6" style="stop-color:#EB2D2E"/>
		<stop  offset="0.8" style="stop-color:#FDE92B"/>
		<stop  offset="1" style="stop-color:#009E54"/>
	</linearGradient>
	
		<line fill="url(#SVGID_3_)" stroke="url(#SVGID_4_)" stroke-width="5" stroke-miterlimit="10" x1="140.441" y1="131.306" x2="128.66" y2="143.088"/>
	<linearGradient id="SVGID_5_" gradientUnits="userSpaceOnUse" x1="140.4414" y1="137.1108" x2="152.0508" y2="137.1108">
		<stop  offset="0" style="stop-color:#00A8DE"/>
		<stop  offset="0.2" style="stop-color:#333391"/>
		<stop  offset="0.4" style="stop-color:#E91388"/>
		<stop  offset="0.6" style="stop-color:#EB2D2E"/>
		<stop  offset="0.8" style="stop-color:#FDE92B"/>
		<stop  offset="1" style="stop-color:#009E54"/>
	</linearGradient>
	<linearGradient id="SVGID_6_" gradientUnits="userSpaceOnUse" x1="138.6733" y1="137.1108" x2="153.8188" y2="137.1108">
		<stop  offset="0" style="stop-color:#00A8DE"/>
		<stop  offset="0.2" style="stop-color:#333391"/>
		<stop  offset="0.4" style="stop-color:#E91388"/>
		<stop  offset="0.6" style="stop-color:#EB2D2E"/>
		<stop  offset="0.8" style="stop-color:#FDE92B"/>
		<stop  offset="1" style="stop-color:#009E54"/>
	</linearGradient>
	
		<line fill="url(#SVGID_5_)" stroke="url(#SVGID_6_)" stroke-width="5" stroke-miterlimit="10" x1="140.441" y1="131.306" x2="152.051" y2="142.916"/>
	<line fill="none" stroke="#FBB040" stroke-miterlimit="10" x1="245.667" y1="428.164" x2="557.889" y2="430.387"/>
	<line fill="none" stroke="#FBB040" stroke-miterlimit="10" x1="557.889" y1="430.387" x2="542.333" y2="417.559"/>
	<line fill="none" stroke="#FBB040" stroke-miterlimit="10" x1="557.889" y1="430.387" x2="544.555" y2="443.721"/>
	<text transform="matrix(1 0 0 1 307.3667 450.959)" fill="#F7941E" font-family="'MyriadPro-Regular'" font-size="18">Video title</text>
	<line fill="none" stroke="#F7941E" stroke-miterlimit="10" x1="665.702" y1="474.411" x2="665.702" y2="758.856"/>
	<line fill="none" stroke="#F7941E" stroke-miterlimit="10" x1="665.702" y1="758.856" x2="677.483" y2="740.353"/>
	<line fill="none" stroke="#F7941E" stroke-miterlimit="10" x1="665.702" y1="758.856" x2="654.093" y2="740.622"/>
	<line fill="#2E3192" stroke="#F7941E" stroke-miterlimit="10" x1="642.744" y1="758.856" x2="642.744" y2="474.411"/>
	<line fill="#2E3192" stroke="#F7941E" stroke-miterlimit="10" x1="642.744" y1="474.411" x2="630.963" y2="492.915"/>
	<line fill="#2E3192" stroke="#F7941E" stroke-miterlimit="10" x1="642.744" y1="474.411" x2="654.354" y2="492.646"/>
	<text transform="matrix(1 0 0 1 674.9814 596.875)"><tspan x="0" y="0" fill="#F7941E" font-family="'MyriadPro-Regular'" font-size="18">search</tspan><tspan x="3.42" y="21.6" fill="#F7941E" font-family="'MyriadPro-Regular'" font-size="18">video</tspan><tspan x="9.685" y="43.2" fill="#F7941E" font-family="'MyriadPro-Regular'" font-size="18">title</tspan></text>
	<text transform="matrix(1 0 0 1 457.8667 474.4111)" fill="#F7941E" font-family="'MyriadPro-Regular'" font-size="18">lyrics</text>
	<line fill="none" stroke="#F7941E" stroke-miterlimit="10" x1="559.889" y1="453.721" x2="247.667" y2="453.721"/>
	<line fill="none" stroke="#F7941E" stroke-miterlimit="10" x1="247.667" y1="453.721" x2="255.444" y2="443.721"/>
	<line fill="none" stroke="#F7941E" stroke-miterlimit="10" x1="247.667" y1="453.721" x2="255.444" y2="466.449"/>
	<text transform="matrix(1 0 0 1 142.665 100.2646)" font-family="'MyriadPro-Regular'" font-size="18">user</text>
	<text transform="matrix(1 0 0 1 553.2217 835.084)"><tspan x="0" y="0" font-family="'MyriadPro-Regular'" font-size="12">Song</tspan><tspan x="0" y="14.4" font-family="'MyriadPro-Regular'" font-size="12">Artist</tspan><tspan x="0" y="28.8" font-family="'MyriadPro-Regular'" font-size="12">Song lyrics</tspan></text>
</g>
</svg>
